<?xml version="1.0" encoding="UTF-8"?>
<svg width="150px" height="150px" viewBox="0 0 50 50" version="1.1" xmlns="http://www.w3.org/2000/svg" xmlns:xlink="http://www.w3.org/1999/xlink">
    <!-- Generator: Sketch 64 (93537) - https://sketch.com -->
    <title>Group 5 Copy 2</title>
    <desc>Created with Sketch.</desc>
    <defs>
        <circle id="path-1" cx="24.5760007" cy="24.5760007" r="24.5760007"></circle>
    </defs>
    <g id="Page-1" stroke="none" stroke-width="1" fill="none" fill-rule="evenodd">
        <g id="Artboard-Copy-2" transform="translate(-690.000000, -175.000000)">
            <g id="Group-5-Copy-2" transform="translate(690.000000, 175.000000)">
                <g id="Group-3-Copy">
                    <g id="Group-2">
                        <mask id="mask-2" fill="white">
                            <use xlink:href="#path-1"></use>
                        </mask>
                        <use id="Mask" fill="#DDDDDD" xlink:href="#path-1"></use>
                        <g mask="url(#mask-2)">
                            <g transform="translate(8.832000, 12.904001)">
                                <line x1="28.4160013" y1="12.8240006" x2="28.4160013" y2="50.4560023" id="Path-3" stroke="#373431" stroke-width="2.40000004"></line>
                                <path d="M3.07200014,12.8240006 L3.07200014,20.5762601 C3.07200014,34.5123561 11.2133631,46.2393299 22.272001,49.6880023 L28.4160013,51.2240023 L28.4160013,50.4560023" id="Path" stroke="#373431" stroke-width="2.40000004"></path>
                                <path d="M16.4992766,25.2353261 C17.7766692,31.9634019 22.2455186,37.5613968 28.2714768,40.3949627 C30.9957416,41.6759845 34.0382542,42.3920019 37.2480017,42.3920019" id="Path" stroke="#373431" stroke-width="2.40000004"></path>
                                <g id="Group" stroke="none" stroke-width="1" fill-rule="evenodd" transform="translate(0.000000, 0.000000)">
                                    <path d="M16.1280007,0.53599984 C11.6957246,0.53599984 7.77312942,2.65711647 5.37600024,5.91200008 M3.40528223,8.98400045 C3.18722732,9.93772673 3.07200014,10.9310797 3.07200014,11.9515607 C3.07200014,19.2198713 8.91737071,25.1120012 16.1280007,25.1120012" id="Shape" stroke="#373431" stroke-width="2.40000004"></path>
                                    <path d="M0,6.29600001 L11.9040005,6.29600001 C14.0247741,6.29600001 15.7440007,8.01522665 15.7440007,10.1360002 L15.7440007,10.1360002 L15.7440007,10.1360002 L15.7440007,12.4290319" id="Path-2" stroke="#373431" stroke-width="2.40000004"></path>
                                </g>
                                <g id="Group-Copy" stroke="none" stroke-width="1" fill-rule="evenodd" transform="translate(18.488001, 13.000000) scale(-1, 1) translate(-18.488001, -13.000000) translate(5.488001, 0.000000)">
                                    <path d="M16.1280007,0.53599984 C11.6957246,0.53599984 7.77312942,2.65711647 5.37600024,5.91200008 M3.40528223,8.98400045 C3.18722732,9.93772673 3.07200014,10.9310797 3.07200014,11.9515607 C3.07200014,19.2198713 8.91737071,25.1120012 16.1280007,25.1120012" id="Shape" stroke="#373431" stroke-width="2.40000004"></path>
                                    <path d="M0,6.29600001 L11.9040005,6.29600001 C14.0247741,6.29600001 15.7440007,8.01522665 15.7440007,10.1360002 L15.7440007,10.1360002 L15.7440007,10.1360002 L15.7440007,12.5959994" id="Path-2" stroke="#373431" stroke-width="2.40000004"></path>
                                    <g id="Group-8" transform="translate(5.820002, 5.095999)">
                                        <g id="Group-4" transform="translate(0.000000, 0.500000)" fill="#373431">
                                            <circle id="Oval" cx="5.5" cy="5.5" r="5.5"></circle>
                                            <circle id="Oval-Copy-4" cx="14.5" cy="5.5" r="5.5"></circle>
                                            <circle id="Oval-Copy-7" stroke="#DDDDDD" stroke-width="2" cx="5.5" cy="5.5" r="2.5"></circle>
                                            <circle id="Oval-Copy-8" stroke="#DDDDDD" stroke-width="2" cx="14.5" cy="5.5" r="2.5"></circle>
                                        </g>
                                        <g id="Group-3" transform="translate(2.500000, 3.000000)"></g>
                                    </g>
                                    <path d="M15.8200018,16.3459994 L15.8194001,16.3559994 L16.0326223,16.5746779 C16.6252149,17.1630733 17.2178075,17.5801581 17.8104001,17.8259324 C17.9091814,17.8669014 17.2457769,18.7041687 15.8201865,20.3377345 L15.8200018,20.4102411 C14.3876614,18.7284312 13.7209948,17.866995 13.8200018,17.8259324 C14.4866685,17.5494363 15.1533352,17.0561253 15.8200018,16.3459994 L15.8094001,16.3559994 L15.8104001,16.3459994 L15.8144001,16.3509994 L15.8200018,16.3459994 Z" id="Combined-Shape" fill="#373431"></path>
                                </g>
                            </g>
                        </g>
                    </g>
                </g>
            </g>
        </g>
    </g>
</svg>
